<?xml version="1.0" encoding="UTF-8"?>
<svg version="1.1" xmlns="http://www.w3.org/2000/svg" width="365" height="363">
<path d="M0 0 C1.33118299 -0.00668677 1.33118299 -0.00668677 2.68925858 -0.01350862 C3.66520855 -0.01332426 4.64115852 -0.01313989 5.64668274 -0.01294994 C7.20084459 -0.01846498 7.20084459 -0.01846498 8.78640366 -0.02409142 C12.27539812 -0.03514777 15.76436282 -0.03897545 19.25337219 -0.04278088 C21.74825129 -0.04904415 24.24312946 -0.05569083 26.73800659 -0.0626936 C34.23854319 -0.08193691 41.73907189 -0.09252541 49.23962593 -0.10142139 C52.77370924 -0.10580576 56.30779105 -0.1111723 59.84187317 -0.11641026 C71.59432158 -0.13342471 83.34676907 -0.14791709 95.09922791 -0.155159 C98.1491445 -0.15706884 101.19906109 -0.15898917 104.24897766 -0.16094494 C105.38601493 -0.16167055 105.38601493 -0.16167055 106.54602265 -0.16241082 C118.81514797 -0.17070437 131.08417557 -0.19602885 143.35325825 -0.22852562 C155.9564366 -0.26163433 168.55956538 -0.27961132 181.16278744 -0.28280324 C188.23620599 -0.28496514 195.30948219 -0.29366645 202.38285828 -0.31926441 C209.04114919 -0.34330468 215.69914023 -0.3467732 222.357481 -0.33650303 C224.79750863 -0.33600783 227.2375489 -0.34232345 229.67753792 -0.35605907 C233.01724829 -0.37380304 236.35604318 -0.36665856 239.695755 -0.35352612 C241.13291131 -0.36997998 241.13291131 -0.36997998 242.59910107 -0.38676625 C251.23659189 -0.3051677 259.82800813 1.90553252 266.55415344 7.57172108 C267.27860657 8.18144764 268.00305969 8.7911742 268.74946594 9.41937733 C269.38626282 9.98527576 270.02305969 10.5511742 270.67915344 11.13422108 C271.58665344 11.91797108 272.49415344 12.70172108 273.42915344 13.50922108 C280.94325207 22.27566947 282.98162509 31.28651324 282.95330811 42.53134632 C282.95854478 43.56537724 282.96378146 44.59940816 282.96917683 45.66477334 C282.984155 49.12289033 282.98488151 52.58085906 282.98554993 56.03900623 C282.99317295 58.52137978 283.00160069 61.00375096 283.01077271 63.48611927 C283.03271241 70.22604292 283.04153826 76.96590711 283.04659915 83.70585775 C283.04986211 87.91937348 283.05638823 92.13288014 283.06360054 96.34639072 C283.083161 108.02693925 283.09956818 119.70747936 283.10247707 131.38804531 C283.10266464 132.13480241 283.10285221 132.88155952 283.10304547 133.65094563 C283.1034117 135.16461555 283.1037754 136.67828548 283.10413658 138.1919554 C283.10431939 138.94327905 283.1045022 139.6946027 283.10469055 140.46869373 C283.10496138 141.59706514 283.10496138 141.59706514 283.10523767 142.74823193 C283.10877688 154.9284864 283.13578581 167.10856382 283.17318844 179.28875692 C283.21133769 191.81297819 283.23063504 204.33711175 283.23093659 216.86139238 C283.23151971 223.88565778 283.23991728 230.90971198 283.26893425 237.93392277 C283.29611886 244.54467916 283.29729686 251.15509166 283.28127861 257.76590824 C283.2794673 260.18574911 283.28612588 262.60561419 283.30209732 265.02540302 C283.4678743 291.78351788 283.4678743 291.78351788 275.39790344 302.45062733 C274.29962219 303.56244373 274.29962219 303.56244373 273.17915344 304.69672108 C272.44696594 305.46113514 271.71477844 306.2255492 270.96040344 307.01312733 C266.85631138 310.82908964 263.40330275 313.51656739 258.05415344 315.32172108 C257.11313782 315.64527576 256.17212219 315.96883045 255.20259094 316.30218983 C254.36985657 316.57676014 253.53712219 316.85133045 252.67915344 317.13422108 C251.68915344 317.46422108 250.69915344 317.79422108 249.67915344 318.13422108 C248.25584857 318.22612442 246.82863266 318.26330636 245.40236568 318.26564884 C244.52474384 318.26948999 243.647122 318.27333113 242.74290556 318.27728868 C241.29546668 318.27598895 241.29546668 318.27598895 239.81878662 318.27466297 C238.2819424 318.27911965 238.2819424 318.27911965 236.71405083 318.28366637 C233.26417778 318.29237156 229.81433936 318.29386318 226.36445618 318.29535389 C223.89751104 318.29998087 221.43056662 318.30500536 218.96362305 318.31039906 C212.24846605 318.32353882 205.53332266 318.33000806 198.818156 318.33440971 C194.62344979 318.33717262 190.42874587 318.34141016 186.23404121 318.34591389 C174.61626931 318.35810882 162.99849926 318.36840647 151.38072109 318.37178898 C150.26514552 318.37211833 150.26514552 318.37211833 149.12703306 318.37245433 C148.38154506 318.37267261 147.63605706 318.37289089 146.86797851 318.37311578 C145.3573643 318.37355924 143.84675008 318.37400581 142.33613586 318.37445545 C141.21216289 318.3747876 141.21216289 318.3747876 140.0654834 318.37512645 C127.93473181 318.37907107 115.80404042 318.39651378 103.67331206 318.41981497 C91.21364967 318.44355432 78.75401745 318.45599207 66.29433209 318.4571569 C59.30089832 318.45807241 52.30754291 318.46379306 45.31413078 318.48197651 C38.73222604 318.49902969 32.15044344 318.50061077 25.56851387 318.4918375 C23.15548428 318.49106726 20.74244671 318.49540806 18.32943726 318.50529575 C15.02891723 318.51802445 11.72892251 318.51213291 8.42840576 318.50171375 C7.47906156 318.50977016 6.52971737 318.51782656 5.55160517 318.5261271 C-2.8495471 318.46433029 -10.55653095 316.65498788 -17.75834656 312.19672108 C-18.5614325 311.71332264 -19.36451843 311.2299242 -20.19194031 310.73187733 C-22.42340514 309.05725509 -23.83998924 307.49121262 -25.32084656 305.13422108 C-25.32084656 304.47422108 -25.32084656 303.81422108 -25.32084656 303.13422108 C-25.98084656 303.13422108 -26.64084656 303.13422108 -27.32084656 303.13422108 C-28.75834656 301.19281483 -28.75834656 301.19281483 -30.32084656 298.57172108 C-30.83647156 297.72480701 -31.35209656 296.87789295 -31.88334656 296.00531483 C-35.27706189 289.22710621 -35.61231969 283.18052139 -35.58827209 275.72363758 C-35.59280321 274.68819553 -35.59733432 273.65275348 -35.60200274 272.5859344 C-35.61464306 269.12314319 -35.61302658 265.66050934 -35.6113739 262.19769764 C-35.61735939 259.71207954 -35.62416498 257.22646329 -35.63172913 254.74084949 C-35.64756031 248.69349268 -35.65383745 242.64619752 -35.65495388 236.59882572 C-35.6559057 231.68060299 -35.66002265 226.76239307 -35.66635513 221.84417439 C-35.68396061 207.885515 -35.69319516 193.92688631 -35.69169419 179.96821573 C-35.69161427 179.21636664 -35.69153436 178.46451754 -35.69145203 177.68988514 C-35.69137027 176.93711291 -35.6912885 176.18434069 -35.69120426 175.40875718 C-35.69039169 163.21424488 -35.70952392 151.0198562 -35.73772876 138.82537964 C-35.76649247 126.28986856 -35.78026712 113.75441769 -35.77854121 101.21887279 C-35.77787848 94.18688182 -35.78331907 87.15502042 -35.80489731 80.12305927 C-35.82506867 73.50741361 -35.82439982 66.89199423 -35.80986404 60.27631855 C-35.80777557 57.85241769 -35.81247907 55.42849971 -35.82458496 53.00462818 C-35.84007738 49.68701283 -35.83070195 46.37033507 -35.81532288 43.05273914 C-35.82561 42.10125437 -35.83589713 41.1497696 -35.84649599 40.16945195 C-35.76039283 31.72195133 -33.17119016 24.59141456 -29.32084656 17.13422108 C-28.66084656 17.13422108 -28.00084656 17.13422108 -27.32084656 17.13422108 C-27.09397156 16.57734608 -26.86709656 16.02047108 -26.63334656 15.44672108 C-24.9453462 12.4726252 -22.85408139 10.41413243 -20.32084656 8.13422108 C-19.66084656 8.13422108 -19.00084656 8.13422108 -18.32084656 8.13422108 C-18.32084656 7.47422108 -18.32084656 6.81422108 -18.32084656 6.13422108 C-16.55087181 5.31985239 -14.77983504 4.50779168 -13.00834656 3.69672108 C-12.02221375 3.24426014 -11.03608093 2.7917992 -10.02006531 2.32562733 C-6.50498611 0.77410901 -3.80995108 0.00887833 0 0 Z " fill="#FCFDFD" transform="translate(56.32084655761719,17.865778923034668)"/>
<path d="M0 0 C0 21.12 0 42.24 0 64 C2.97 62.02 5.94 60.04 9 58 C12.51171875 56.35546875 12.51171875 56.35546875 15.6875 55.1875 C16.74324219 54.78917969 17.79898438 54.39085937 18.88671875 53.98046875 C33.34562986 49.42690954 50.43809985 51.0113769 64.125 57.125 C76.59836356 63.82291548 84.07809112 73.93264508 88.23828125 87.203125 C89.63754289 92.3409267 90.12275512 96.9247842 90.11352539 102.26879883 C90.11367142 102.98153961 90.11381744 103.6942804 90.1139679 104.42861938 C90.11327432 106.7714549 90.105508 109.11420972 90.09765625 111.45703125 C90.0957901 113.08656267 90.09436713 114.71609465 90.09336853 116.34562683 C90.08955888 120.62488364 90.07974188 124.90410626 90.06866455 129.18334961 C90.05841702 133.55386899 90.05386376 137.92439393 90.04882812 142.29492188 C90.03811818 150.86329865 90.02053399 159.43164113 90 168 C80.43 168 70.86 168 61 168 C60.99589111 165.86080078 60.99178223 163.72160156 60.98754883 161.51757812 C60.97030753 154.42872388 60.92573306 147.34022805 60.86790943 140.25159454 C60.83370138 135.95607093 60.80853915 131.66090062 60.80444336 127.36523438 C60.80014702 123.21518204 60.77157496 119.06592587 60.72656822 114.91612244 C60.71363563 113.33744453 60.70927047 111.75867114 60.71384621 110.1799469 C60.86910406 98.16255869 60.86910406 98.16255869 55 88 C48.44679908 81.44679908 42.19827038 79.7019986 33.1875 79.5625 C22.47507888 79.66513546 15.01753567 82.48936606 6.97265625 89.51171875 C0.44681025 97.74333044 0.39646376 106.44501728 0.390625 116.53515625 C0.37561983 118.02446774 0.35888783 119.51376274 0.34051514 121.0030365 C0.29709074 124.89424465 0.27689846 128.78522843 0.26177979 132.67663574 C0.24211802 136.65890636 0.2001587 140.64093783 0.16015625 144.62304688 C0.08512434 152.41533015 0.03673502 160.20742483 0 168 C-9.24 168 -18.48 168 -28 168 C-28.0677523 149.21524007 -28.12300234 130.43057925 -28.15543652 111.64572811 C-28.17089735 102.92336079 -28.19197189 94.20107485 -28.22631836 85.47875977 C-28.25624471 77.87530527 -28.2755807 70.27190972 -28.28226548 62.66839796 C-28.28617227 58.64336414 -28.29533737 54.61849893 -28.31719017 50.59351921 C-28.33760651 46.80227125 -28.34382346 43.01126079 -28.33932304 39.21996307 C-28.34014595 37.83125326 -28.34608103 36.44253521 -28.35761642 35.05387306 C-28.44582528 23.88379472 -26.80871984 16.3146844 -19 8 C-13.05442235 3.2498295 -7.73386526 0 0 0 Z " fill="#101010" transform="translate(89,80)"/>
<path d="M0 0 C1.47583955 0.0001591 2.95168467 0.00585225 4.42749023 0.01586914 C5.20293686 0.01728409 5.97838348 0.01869904 6.77732849 0.02015686 C9.26361893 0.02577194 11.74982059 0.03832693 14.23608398 0.05102539 C15.91772331 0.05603845 17.59936405 0.06060169 19.28100586 0.06469727 C23.41189965 0.07574626 27.54272674 0.09302094 31.67358398 0.11352539 C28.40677557 4.56201844 25.12438752 8.87923383 21.36108398 12.92602539 C18.19981797 16.3833297 15.17651562 19.90405894 12.23608398 23.55102539 C9.1602181 27.35440042 5.98605232 31.01435191 2.67358398 34.61352539 C-3.00557055 40.7930073 -8.25545306 47.28171345 -13.50219727 53.82836914 C-18.38331604 59.8712462 -23.48199795 65.63586931 -28.75610352 71.33227539 C-34.12475748 77.14151798 -39.14647376 83.05969057 -43.84594727 89.42602539 C-44.33450195 89.98290039 -44.82305664 90.53977539 -45.32641602 91.11352539 C-45.98641602 91.11352539 -46.64641602 91.11352539 -47.32641602 91.11352539 C-47.98641602 92.43352539 -48.64641602 93.75352539 -49.32641602 95.11352539 C-53.78141602 100.55852539 -53.78141602 100.55852539 -58.32641602 106.11352539 C-40.50641602 106.11352539 -22.68641602 106.11352539 -4.32641602 106.11352539 C-4.68051074 97.30148049 -4.68051074 97.30148049 -5.13720703 88.49462891 C-5.31724976 79.56799407 -5.31724976 79.56799407 -2.42358398 75.3203125 C-0.16328861 73.04866701 2.13825811 71.06918947 4.67358398 69.11352539 C6.01298736 67.93287615 7.34744438 66.74655363 8.67358398 65.55102539 C9.31553711 65.00188477 9.95749023 64.45274414 10.61889648 63.88696289 C13.7357278 61.19677008 16.75804255 58.40183608 19.79077148 55.61743164 C21.67358398 54.11352539 21.67358398 54.11352539 23.67358398 54.11352539 C23.67358398 71.27352539 23.67358398 88.43352539 23.67358398 106.11352539 C29.61358398 106.11352539 35.55358398 106.11352539 41.67358398 106.11352539 C41.67358398 114.69352539 41.67358398 123.27352539 41.67358398 132.11352539 C35.40358398 132.11352539 29.13358398 132.11352539 22.67358398 132.11352539 C23.07577148 136.56852539 23.07577148 136.56852539 23.48608398 141.11352539 C23.68354309 146.40302239 23.76779395 149.89493518 20.13061523 153.94555664 C16.72639104 155.96893491 13.31477228 157.56220234 9.67358398 159.11352539 C7.8223564 160.23021763 5.98663587 161.37336329 4.17358398 162.55102539 C0.69477125 164.73719709 -1.05113031 165.25846825 -5.32641602 166.11352539 C-5.32641602 154.89352539 -5.32641602 143.67352539 -5.32641602 132.11352539 C-30.40641602 132.11352539 -55.48641602 132.11352539 -81.32641602 132.11352539 C-81.60485352 122.27540039 -81.60485352 122.27540039 -81.88891602 112.23852539 C-81.97085205 110.18907715 -82.05278809 108.13962891 -82.13720703 106.02807617 C-82.48404444 91.11854274 -82.48404444 91.11854274 -77.05688477 85.11743164 C-75.49627542 83.76387312 -73.91957069 82.4286225 -72.32641602 81.11352539 C-70.87485851 79.41354227 -69.45404455 77.68645188 -68.07641602 75.92602539 C-63.87774308 70.73640693 -59.52074698 65.70175076 -55.13305664 60.67260742 C-51.87969404 56.93391025 -48.69414095 53.15457702 -45.57641602 49.30102539 C-42.04972233 44.94414286 -38.35139512 40.78676635 -34.57641602 36.64477539 C-31.46070305 33.1395983 -28.53544168 29.49083638 -25.58813477 25.84399414 C-22.63978721 22.2845901 -19.52430531 18.89345251 -16.40454102 15.48461914 C-13.90128494 12.62846042 -11.6811704 9.6306357 -9.51782227 6.51196289 C-9.1246582 6.05047852 -8.73149414 5.58899414 -8.32641602 5.11352539 C-7.66641602 5.11352539 -7.00641602 5.11352539 -6.32641602 5.11352539 C-5.86235352 4.15446289 -5.86235352 4.15446289 -5.38891602 3.17602539 C-3.81994133 0.13036864 -3.81994133 0.13036864 0 0 Z " fill="#1A58F0" transform="translate(265.326416015625,84.886474609375)"/>
<path d="M0 0 C1.33118299 -0.00668677 1.33118299 -0.00668677 2.68925858 -0.01350862 C3.66520855 -0.01332426 4.64115852 -0.01313989 5.64668274 -0.01294994 C7.20084459 -0.01846498 7.20084459 -0.01846498 8.78640366 -0.02409142 C12.27539812 -0.03514777 15.76436282 -0.03897545 19.25337219 -0.04278088 C21.74825129 -0.04904415 24.24312946 -0.05569083 26.73800659 -0.0626936 C34.23854319 -0.08193691 41.73907189 -0.09252541 49.23962593 -0.10142139 C52.77370924 -0.10580576 56.30779105 -0.1111723 59.84187317 -0.11641026 C71.59432158 -0.13342471 83.34676907 -0.14791709 95.09922791 -0.155159 C98.1491445 -0.15706884 101.19906109 -0.15898917 104.24897766 -0.16094494 C105.38601493 -0.16167055 105.38601493 -0.16167055 106.54602265 -0.16241082 C118.81514797 -0.17070437 131.08417557 -0.19602885 143.35325825 -0.22852562 C155.9564366 -0.26163433 168.55956538 -0.27961132 181.16278744 -0.28280324 C188.23620599 -0.28496514 195.30948219 -0.29366645 202.38285828 -0.31926441 C209.04114919 -0.34330468 215.69914023 -0.3467732 222.357481 -0.33650303 C224.79750863 -0.33600783 227.2375489 -0.34232345 229.67753792 -0.35605907 C233.01724829 -0.37380304 236.35604318 -0.36665856 239.695755 -0.35352612 C241.13291131 -0.36997998 241.13291131 -0.36997998 242.59910107 -0.38676625 C251.23659189 -0.3051677 259.82800813 1.90553252 266.55415344 7.57172108 C267.2773175 8.17886951 268.00048157 8.78601795 268.74555969 9.41156483 C269.38364563 9.98004139 270.02173157 10.54851795 270.67915344 11.13422108 C271.60727844 11.95922108 272.53540344 12.78422108 273.49165344 13.63422108 C276.17664634 16.70278439 277.93162252 19.43752105 279.67915344 23.13422108 C279.28071594 25.34906483 279.28071594 25.34906483 278.67915344 27.13422108 C277.69634929 25.53228036 276.71803627 23.92758366 275.74165344 22.32172108 C274.92374329 20.98174061 274.92374329 20.98174061 274.08930969 19.61468983 C272.67915344 17.13422108 272.67915344 17.13422108 271.67915344 14.13422108 C271.01915344 14.13422108 270.35915344 14.13422108 269.67915344 14.13422108 C269.03977844 13.41234608 268.40040344 12.69047108 267.74165344 11.94672108 C263.37317378 7.34210738 255.03348226 3.41518236 248.68299717 3.00541991 C247.91492758 3.00363134 247.14685799 3.00184277 246.35551357 3 C245.46744154 2.99554216 244.57936952 2.99108431 243.66438621 2.98649138 C242.19943807 2.98676793 242.19943807 2.98676793 240.70489502 2.98705006 C239.66808155 2.98337337 238.63126808 2.97969668 237.56303602 2.97590858 C234.07170759 2.96485228 230.58040889 2.96102457 227.08906555 2.95721912 C224.59256393 2.95095588 222.09606325 2.94430921 219.5995636 2.9373064 C212.0945829 2.91806382 204.58961011 2.9074751 197.08461198 2.89857861 C193.54890549 2.89419446 190.0132005 2.8888279 186.47749519 2.88358974 C174.72075556 2.86657605 162.96401686 2.85208317 151.20726681 2.844841 C148.15631039 2.84293115 145.10535397 2.84101082 142.05439758 2.83905506 C140.91696685 2.83832945 140.91696685 2.83832945 139.75655771 2.83758918 C127.48029036 2.82929375 115.2041206 2.80396572 102.92789584 2.77147438 C90.31907225 2.73837543 77.7102982 2.7203896 65.10143095 2.71719676 C58.02413194 2.71503405 50.94697516 2.70632081 43.86971855 2.68073559 C37.20896843 2.65671162 30.54851808 2.65322069 23.8877182 2.66349697 C21.44565798 2.66399253 19.00358519 2.65766638 16.56156349 2.64394093 C13.22150261 2.62622162 9.88235935 2.63332936 6.54229736 2.64647388 C5.58128032 2.63550464 4.62026328 2.62453539 3.63012451 2.61323375 C-6.97697936 2.71365941 -15.74198108 6.75862019 -23.32084656 14.13422108 C-30.28011537 22.58259108 -32.7790382 30.78123964 -32.69506836 41.55116749 C-32.69904277 42.57521331 -32.70301717 43.59925912 -32.70711201 44.65433663 C-32.71670695 48.07266039 -32.70493345 51.49056738 -32.69316101 54.90887928 C-32.69558994 57.36508812 -32.69931023 59.82129598 -32.70422363 62.27750111 C-32.71264818 68.24923303 -32.70712849 74.22080277 -32.69496069 80.19251601 C-32.68130506 87.15529749 -32.68298178 94.11805045 -32.68509402 101.08084192 C-32.68828123 113.5113388 -32.67663307 125.94177832 -32.6570282 138.37225819 C-32.63803756 150.4165468 -32.63093779 162.46076817 -32.63652039 174.50507069 C-32.64258861 187.63583731 -32.64238107 200.76657439 -32.63103455 213.89733857 C-32.62982734 215.299691 -32.62862135 216.70204343 -32.62741661 218.10439587 C-32.62681307 218.79427981 -32.62620953 219.48416375 -32.62558771 220.19495327 C-32.62171974 225.04048423 -32.62209787 229.88600415 -32.62400246 234.73153591 C-32.62635568 241.26426052 -32.61773867 247.79691143 -32.60194206 254.32962132 C-32.59771166 256.72287675 -32.59684026 259.11614092 -32.59963226 261.50939846 C-32.60287304 264.78513342 -32.59372443 268.06061483 -32.58154297 271.33632374 C-32.58721195 272.74501845 -32.58721195 272.74501845 -32.59299546 274.18217164 C-32.53254266 283.42082216 -31.8540808 291.9160544 -26.34428406 299.57562733 C-25.32084656 301.13422108 -25.32084656 301.13422108 -25.32084656 303.13422108 C-25.98084656 303.13422108 -26.64084656 303.13422108 -27.32084656 303.13422108 C-28.75834656 301.19281483 -28.75834656 301.19281483 -30.32084656 298.57172108 C-30.83647156 297.72480701 -31.35209656 296.87789295 -31.88334656 296.00531483 C-35.27706189 289.22710621 -35.61231969 283.18052139 -35.58827209 275.72363758 C-35.59280321 274.68819553 -35.59733432 273.65275348 -35.60200274 272.5859344 C-35.61464306 269.12314319 -35.61302658 265.66050934 -35.6113739 262.19769764 C-35.61735939 259.71207954 -35.62416498 257.22646329 -35.63172913 254.74084949 C-35.64756031 248.69349268 -35.65383745 242.64619752 -35.65495388 236.59882572 C-35.6559057 231.68060299 -35.66002265 226.76239307 -35.66635513 221.84417439 C-35.68396061 207.885515 -35.69319516 193.92688631 -35.69169419 179.96821573 C-35.69161427 179.21636664 -35.69153436 178.46451754 -35.69145203 177.68988514 C-35.69137027 176.93711291 -35.6912885 176.18434069 -35.69120426 175.40875718 C-35.69039169 163.21424488 -35.70952392 151.0198562 -35.73772876 138.82537964 C-35.76649247 126.28986856 -35.78026712 113.75441769 -35.77854121 101.21887279 C-35.77787848 94.18688182 -35.78331907 87.15502042 -35.80489731 80.12305927 C-35.82506867 73.50741361 -35.82439982 66.89199423 -35.80986404 60.27631855 C-35.80777557 57.85241769 -35.81247907 55.42849971 -35.82458496 53.00462818 C-35.84007738 49.68701283 -35.83070195 46.37033507 -35.81532288 43.05273914 C-35.82561 42.10125437 -35.83589713 41.1497696 -35.84649599 40.16945195 C-35.76039283 31.72195133 -33.17119016 24.59141456 -29.32084656 17.13422108 C-28.66084656 17.13422108 -28.00084656 17.13422108 -27.32084656 17.13422108 C-27.09397156 16.57734608 -26.86709656 16.02047108 -26.63334656 15.44672108 C-24.9453462 12.4726252 -22.85408139 10.41413243 -20.32084656 8.13422108 C-19.66084656 8.13422108 -19.00084656 8.13422108 -18.32084656 8.13422108 C-18.32084656 7.47422108 -18.32084656 6.81422108 -18.32084656 6.13422108 C-16.55087181 5.31985239 -14.77983504 4.50779168 -13.00834656 3.69672108 C-12.02221375 3.24426014 -11.03608093 2.7917992 -10.02006531 2.32562733 C-6.50498611 0.77410901 -3.80995108 0.00887833 0 0 Z " fill="#939293" transform="translate(56.32084655761719,17.865778923034668)"/>
<path d="M0 0 C2.46891764 2.88294124 3.37529426 4.62709317 3.38311005 8.42269039 C3.39669501 9.74978477 3.39669501 9.74978477 3.41055441 11.10368913 C3.40256252 12.55536205 3.40256252 12.55536205 3.39440918 14.03636169 C3.40050028 15.06782934 3.40659139 16.09929698 3.41286707 17.16202122 C3.42955865 20.62952804 3.42471227 24.09667009 3.41992188 27.56420898 C3.42725895 30.04614139 3.43584411 32.52807038 3.44558716 35.00999451 C3.46554286 41.06046476 3.471181 47.11079085 3.46939927 53.16128122 C3.46809143 58.08337862 3.47189695 63.00544614 3.47932434 67.92753792 C3.48142359 69.34569535 3.4835212 70.76385279 3.48561716 72.18201023 C3.48718245 73.24087991 3.48718245 73.24087991 3.48877937 74.32114089 C3.50769014 87.67838742 3.50663005 101.03557905 3.49981004 114.39283342 C3.49424385 126.59268532 3.5150189 138.79232661 3.54817051 150.99212932 C3.58197443 163.5298244 3.59706686 176.06741883 3.59245348 188.6051603 C3.59021426 195.63951993 3.59537017 202.67368533 3.62034607 209.70800591 C3.64366145 216.33104919 3.64069499 222.95372999 3.62041855 229.57680702 C3.61701616 232.00147721 3.62206409 234.42617701 3.63640213 236.85080719 C3.79757021 266.13802312 3.79757021 266.13802312 -6.5 276.5625 C-7.2321875 277.32691406 -7.964375 278.09132813 -8.71875 278.87890625 C-12.82284206 282.69486856 -16.27585069 285.38234631 -21.625 287.1875 C-22.56601562 287.51105469 -23.50703125 287.83460938 -24.4765625 288.16796875 C-25.30929687 288.44253906 -26.14203125 288.71710938 -27 289 C-27.99 289.33 -28.98 289.66 -30 290 C-31.42330487 290.09190334 -32.85052078 290.12908529 -34.27678776 290.13142776 C-35.1544096 290.13526891 -36.03203144 290.13911005 -36.93624789 290.1430676 C-38.38368676 290.14176787 -38.38368676 290.14176787 -39.86036682 290.14044189 C-41.39721104 290.14489858 -41.39721104 290.14489858 -42.96510261 290.1494453 C-46.41497566 290.15815048 -49.86481409 290.1596421 -53.31469727 290.16113281 C-55.7816424 290.16575979 -58.24858682 290.17078429 -60.7155304 290.17617798 C-67.43068739 290.18931775 -74.14583078 290.19578698 -80.86099744 290.20018864 C-85.05570366 290.20295154 -89.25040757 290.20718908 -93.44511223 290.21169281 C-105.06288413 290.22388774 -116.68065419 290.2341854 -128.29843235 290.2375679 C-129.41400793 290.23789725 -129.41400793 290.23789725 -130.55212038 290.23823325 C-131.29760838 290.23845153 -132.04309638 290.23866981 -132.81117493 290.2388947 C-134.32178915 290.23933816 -135.83240336 290.23978473 -137.34301758 290.24023438 C-138.46699055 290.24056652 -138.46699055 290.24056652 -139.61367004 290.24090537 C-151.74442163 290.24484999 -163.87511303 290.2622927 -176.00584138 290.2855939 C-188.46550377 290.30933324 -200.92513599 290.32177099 -213.38482136 290.32293582 C-220.37825512 290.32385133 -227.37161053 290.32957198 -234.36502266 290.34775543 C-240.9469274 290.36480861 -247.52871 290.36638969 -254.11063957 290.35761642 C-256.52366916 290.35684619 -258.93670674 290.36118698 -261.34971619 290.37107468 C-264.65023622 290.38380337 -267.95023094 290.37791184 -271.25074768 290.36749268 C-272.20009188 290.37554908 -273.14943607 290.38360548 -274.12754828 290.39190602 C-282.52870054 290.33010921 -290.23568439 288.5207668 -297.4375 284.0625 C-298.24058594 283.57910156 -299.04367187 283.09570312 -299.87109375 282.59765625 C-302.07846414 280.9411159 -303.46790271 279.28090368 -305 277 C-304.67 276.34 -304.34 275.68 -304 275 C-303.01 275.66 -302.02 276.32 -301 277 C-301 277.66 -301 278.32 -301 279 C-300.443125 279.27714844 -299.88625 279.55429687 -299.3125 279.83984375 C-297.72499827 280.63627621 -296.1418596 281.44144722 -294.5625 282.25390625 C-293.2940625 282.90166016 -293.2940625 282.90166016 -292 283.5625 C-291.154375 283.99691406 -290.30875 284.43132812 -289.4375 284.87890625 C-285.77521867 286.5633209 -282.61800501 287.12482562 -278.60016441 287.13142776 C-277.72055152 287.13526891 -276.84093863 287.13911005 -275.93467081 287.1430676 C-274.9726244 287.14220112 -274.01057799 287.14133463 -273.01937866 287.14044189 C-271.48125281 287.14489858 -271.48125281 287.14489858 -269.9120537 287.1494453 C-266.46528672 287.15813848 -263.01855444 287.15964108 -259.57177734 287.16113281 C-257.10468471 287.1657606 -254.63759279 287.1707852 -252.17050171 287.17617798 C-245.45953603 287.18930898 -238.74858396 287.19578524 -232.03760862 287.20018864 C-227.84507464 287.20295277 -223.65254296 287.2071905 -219.46001053 287.21169281 C-207.84648725 287.22388566 -196.23296581 287.23418424 -184.61943626 287.2375679 C-183.87625433 287.23778747 -183.1330724 287.23800703 -182.36736981 287.23823325 C-181.62242991 287.23845153 -180.87749001 287.23866981 -180.10997617 287.2388947 C-178.60049844 287.23933816 -177.0910207 287.23978473 -175.58154297 287.24023438 C-174.83279316 287.2404558 -174.08404334 287.24067723 -173.31260414 287.24090537 C-161.18838265 287.24485083 -149.06422136 287.26229705 -136.94002311 287.2855939 C-124.48484911 287.30933297 -112.02970529 287.32177095 -99.57450831 287.32293582 C-92.58444289 287.32385126 -85.59445586 287.32957027 -78.60441208 287.34775543 C-72.02659794 287.36480803 -65.44890603 287.36638992 -58.87106705 287.35761642 C-56.45964917 287.35684619 -54.04822329 287.36118691 -51.63682556 287.37107468 C-48.33854846 287.3838034 -45.04079701 287.37791186 -41.74252319 287.36749268 C-40.31953008 287.37957728 -40.31953008 287.37957728 -38.86778963 287.39190602 C-29.46271549 287.32267695 -21.98761085 284.82584822 -14 280 C-13.34 280 -12.68 280 -12 280 C-12 279.34 -12 278.68 -12 278 C-11.34 278 -10.68 278 -10 278 C-9.67 277.01 -9.34 276.02 -9 275 C-8.34 275 -7.68 275 -7 275 C-6.7525 274.34 -6.505 273.68 -6.25 273 C-4.96455417 269.91493001 -3.47608359 267.00806588 -1.90234375 264.0625 C-0.24253929 260.26866124 0.12505022 256.47799698 0.12304783 252.37109661 C0.12503888 251.46590871 0.12702993 250.5607208 0.12908131 249.62810296 C0.12471205 248.1499887 0.12471205 248.1499887 0.12025452 246.64201355 C0.12110894 245.58826847 0.12196337 244.53452339 0.12284368 243.44884664 C0.12449273 239.91273927 0.11898646 236.37667918 0.11352539 232.84057617 C0.11324337 230.30785117 0.11340155 227.77512608 0.1139679 225.24240112 C0.11419572 219.78692713 0.11135656 214.3314684 0.10573006 208.87599754 C0.09760039 200.98832075 0.09499833 193.10064975 0.09374207 185.21296922 C0.09155386 172.41549508 0.08490002 159.61802732 0.07543945 146.82055664 C0.06625937 134.38956738 0.05918145 121.95857986 0.05493164 109.52758789 C0.05466892 108.76124364 0.05440619 107.9948994 0.05413551 107.2053326 C0.05283046 103.36077947 0.05156676 99.51622633 0.05032361 95.67167318 C0.03995818 63.78111078 0.02227175 31.89055638 0 0 Z " fill="#ACACAC" transform="translate(336,46)"/>
<path d="M0 0 C0.66 0 1.32 0 2 0 C2 6.93 2 13.86 2 21 C3.32 21.33 4.64 21.66 6 22 C6 22.66 6 23.32 6 24 C7.051875 23.525625 8.10375 23.05125 9.1875 22.5625 C14.95666646 20.1097406 20.81138778 19.63369232 27 19 C22.77862515 22.59319407 18.26135095 25.38743092 13.5 28.1875 C12.38044922 28.86329102 12.38044922 28.86329102 11.23828125 29.55273438 C10.50996094 29.98263672 9.78164063 30.41253906 9.03125 30.85546875 C8.37705078 31.24371826 7.72285156 31.63196777 7.04882812 32.03198242 C5 33 5 33 0 34 C0 22.78 0 11.56 0 0 Z " fill="#205CE9" transform="translate(260,217)"/>
<path d="M0 0 C0.66 0 1.32 0 2 0 C2 9.24 2 18.48 2 28 C-15.82 28 -33.64 28 -52 28 C-50.11656068 24.23312136 -49.30867531 23.20578354 -46 21 C-46.99 23.475 -46.99 23.475 -48 26 C-32.16 26 -16.32 26 0 26 C0 17.42 0 8.84 0 0 Z " fill="#CDE1FE" transform="translate(259,163)"/>
<path d="M0 0 C1.65 0 3.3 0 5 0 C4.67 1.32 4.34 2.64 4 4 C-21.08 4 -46.16 4 -72 4 C-72 3.67 -72 3.34 -72 3 C-67.36564391 2.25772083 -62.9300775 1.87732928 -58.23852539 1.88647461 C-56.28729515 1.88658791 -56.28729515 1.88658791 -54.29664612 1.88670349 C-52.89698243 1.89180859 -51.49731914 1.89702456 -50.09765625 1.90234375 C-48.65034535 1.90421134 -47.20303381 1.90563363 -45.75572205 1.90663147 C-41.9664024 1.91042982 -38.17712174 1.9202369 -34.38781738 1.93133545 C-30.51310758 1.94160753 -26.6383914 1.94614146 -22.76367188 1.95117188 C-15.17576357 1.96186184 -7.58788727 1.97890566 0 2 C0 1.34 0 0.68 0 0 Z " fill="#3769E3" transform="translate(256,213)"/>
<path d="M0 0 C11.55 0 23.1 0 35 0 C28.22772277 9.02970297 28.22772277 9.02970297 24.375 13.25 C23.64023437 14.05953125 22.90546875 14.8690625 22.1484375 15.703125 C20.14139417 17.84883678 18.09152179 19.93686991 16 22 C16 20.68 16 19.36 16 18 C16.66 18 17.32 18 18 18 C17.855625 17.29875 17.71125 16.5975 17.5625 15.875 C18.16603441 11.90891674 20.15210947 10.84586107 23.2734375 8.52734375 C25.17867009 6.84194569 26.0110732 5.3224796 27 3 C23.82212459 1.9407082 21.57411057 1.88541061 18.23828125 1.90234375 C16.56088867 1.90717773 16.56088867 1.90717773 14.84960938 1.91210938 C13.68236328 1.92048828 12.51511719 1.92886719 11.3125 1.9375 C10.13365234 1.94201172 8.95480469 1.94652344 7.74023438 1.95117188 C4.82677211 1.96296727 1.91341137 1.9794273 -1 2 C-0.67 1.34 -0.34 0.68 0 0 Z " fill="#2460E6" transform="translate(262,85)"/>
<path d="M0 0 C0.33 0 0.66 0 1 0 C0.76366831 10.09780848 -2.26866009 17.41607645 -9.1875 24.8125 C-16.58392355 31.73133991 -23.90219152 34.76366831 -34 35 C-31.70295166 32.70295166 -30.41124523 32.43171775 -27.3125 31.625 C-22.68550073 30.31926215 -19.09821527 28.47600506 -15 26 C-14.34 26 -13.68 26 -13 26 C-13 25.34 -13 24.68 -13 24 C-12.34 24 -11.68 24 -11 24 C-10.67 23.01 -10.34 22.02 -10 21 C-9.34 21 -8.68 21 -8 21 C-7.7525 20.34 -7.505 19.68 -7.25 19 C-6.26201205 16.62882892 -5.19655987 14.45114124 -4 12.1875 C-1.96670119 8.20435868 -0.9353688 4.36505442 0 0 Z " fill="#898687" transform="translate(337,300)"/>
<path d="M0 0 C0 3.19633438 -0.33810135 4.34096216 -2 7 C-2.639375 7.433125 -3.27875 7.86625 -3.9375 8.3125 C-6.32934098 9.99356104 -6.32934098 9.99356104 -7.4375 13.5625 C-9 17 -9 17 -11.6875 18.4375 C-12.450625 18.623125 -13.21375 18.80875 -14 19 C-14.33 21.64 -14.66 24.28 -15 27 C-16.65 26.67 -18.3 26.34 -20 26 C-20.66 26.99 -21.32 27.98 -22 29 C-22.66 28.67 -23.32 28.34 -24 28 C-23.23816406 27.11699219 -22.47632813 26.23398438 -21.69140625 25.32421875 C-15.98029399 18.69049223 -10.3296927 12.02589392 -4.83984375 5.20703125 C-3.30131854 3.3614543 -1.73457829 1.6589269 0 0 Z " fill="#3465E2" transform="translate(227,126)"/>
<path d="M0 0 C0.33 0.99 0.66 1.98 1 3 C0.195625 3.61875 -0.60875 4.2375 -1.4375 4.875 C-4.03874519 6.74164041 -4.03874519 6.74164041 -5 9 C-5.99 9.33 -6.98 9.66 -8 10 C-8.33 10.99 -8.66 11.98 -9 13 C-8.34 13 -7.68 13 -7 13 C-7 13.66 -7 14.32 -7 15 C-7.99 15 -8.98 15 -10 15 C-9.98428955 15.87736816 -9.98428955 15.87736816 -9.96826172 16.77246094 C-9.92659736 19.43159663 -9.90064099 22.09066353 -9.875 24.75 C-9.85824219 25.67039063 -9.84148437 26.59078125 -9.82421875 27.5390625 C-9.81777344 28.42851562 -9.81132812 29.31796875 -9.8046875 30.234375 C-9.79421387 31.05131836 -9.78374023 31.86826172 -9.77294922 32.70996094 C-10.02170084 35.21887518 -10.74299871 36.83395625 -12 39 C-12.26346674 34.52196615 -12.42190429 30.04594102 -12.5625 25.5625 C-12.63791016 24.30244141 -12.71332031 23.04238281 -12.79101562 21.74414062 C-13.00865538 12.48236 -13.00865538 12.48236 -10.06201172 8.15185547 C-6.93090839 4.98522189 -3.69987751 2.46658501 0 0 Z " fill="#215CE0" transform="translate(273,152)"/>
<path d="M0 0 C0.66 0 1.32 0 2 0 C2.16783149 3.93243268 2.32836761 7.86508896 2.48217773 11.7980957 C2.56173399 13.7932891 2.64705005 15.78825011 2.73242188 17.78320312 C2.78076172 19.03681641 2.82910156 20.29042969 2.87890625 21.58203125 C2.94960327 23.31803589 2.94960327 23.31803589 3.02172852 25.08911133 C3 28 3 28 2 31 C2.7425 30.484375 3.485 29.96875 4.25 29.4375 C7 28 7 28 9.171875 28.41015625 C9.77515625 28.60480469 10.3784375 28.79945313 11 29 C9.54462432 29.83848804 8.08559627 30.67063934 6.625 31.5 C5.40683594 32.19609375 5.40683594 32.19609375 4.1640625 32.90625 C2 34 2 34 0 34 C0 22.78 0 11.56 0 0 Z " fill="#3D6FE1" transform="translate(260,217)"/>
<path d="M0 0 C1 2 1 2 0.44140625 4.05859375 C0.15136719 4.84363281 -0.13867188 5.62867187 -0.4375 6.4375 C-1.46835645 9.24346352 -2 10.97296354 -2 14 C-3.82193842 15.9249647 -5.89235283 17.37535531 -8 19 C-9.32 17.68 -10.64 16.36 -12 15 C-11.38511719 14.25234375 -10.77023438 13.5046875 -10.13671875 12.734375 C-8.92435547 11.25710937 -8.92435547 11.25710937 -7.6875 9.75 C-6.88699219 8.77546875 -6.08648437 7.8009375 -5.26171875 6.796875 C-3.45557742 4.5633738 -1.70180085 2.31312737 0 0 Z " fill="#205CEA" transform="translate(245,104)"/>
<path d="M0 0 C9.87819087 -0.9146473 17.43532477 3.87523682 24.9453125 9.96875 C28.43353187 13.4171798 31.23208896 17.41111787 33 22 C32.6484375 24.30078125 32.6484375 24.30078125 32 26 C31.01719585 24.39805929 30.03888283 22.79336258 29.0625 21.1875 C28.51722656 20.29417969 27.97195313 19.40085937 27.41015625 18.48046875 C26 16 26 16 25 13 C24.34 13 23.68 13 23 13 C22.360625 12.278125 21.72125 11.55625 21.0625 10.8125 C15.73721641 5.25018598 7.31901281 2.78909202 0 1 C0 0.67 0 0.34 0 0 Z " fill="#787878" transform="translate(303,19)"/>
<path d="M0 0 C5.09031755 -0.04936158 10.18049643 -0.08570105 15.27099609 -0.10986328 C17.00344265 -0.11993376 18.73587216 -0.13359089 20.46826172 -0.15087891 C22.95544639 -0.17508162 25.44240675 -0.18647239 27.9296875 -0.1953125 C28.70682098 -0.20563507 29.48395447 -0.21595764 30.28463745 -0.22659302 C32.19125493 -0.22699271 34.09731036 -0.1223214 36 0 C36.66 0.66 37.32 1.32 38 2 C30.88610478 11.59453303 30.88610478 11.59453303 26 15 C25.34 14.67 24.68 14.34 24 14 C27.3 10.04 30.6 6.08 34 2 C22.78 1.67 11.56 1.34 0 1 C0 0.67 0 0.34 0 0 Z " fill="#C5DAFC" transform="translate(262,84)"/>
<path d="M0 0 C0 0.33 0 0.66 0 1 C-0.81082031 1.1959375 -1.62164062 1.391875 -2.45703125 1.59375 C-15.12498437 5.01512966 -23.36914386 10.69354018 -30 22 C-30.98359362 23.34548184 -31.97923262 24.68249792 -33 26 C-32.49287967 22.28111761 -31.88391785 19.26545761 -30 16 C-29.34 16 -28.68 16 -28 16 C-27.773125 15.443125 -27.54625 14.88625 -27.3125 14.3125 C-25.62449964 11.33840412 -23.53323483 9.27991135 -21 7 C-20.34 7 -19.68 7 -19 7 C-19 6.34 -19 5.68 -19 5 C-12.4509858 1.62918387 -7.42511009 -0.70048208 0 0 Z " fill="#808080" transform="translate(57,19)"/>
<path d="M0 0 C0 16.83 0 33.66 0 51 C-0.33 51 -0.66 51 -1 51 C-1 35.49 -1 19.98 -1 4 C-2.32 3.67 -3.64 3.34 -5 3 C-2.25 0 -2.25 0 0 0 Z " fill="#2559D3" transform="translate(288,140)"/>
<path d="M0 0 C0 3.77910478 -0.99703962 4.46106101 -3.5 7.1875 C-4.1496875 7.90292969 -4.799375 8.61835937 -5.46875 9.35546875 C-5.9740625 9.89816406 -6.479375 10.44085938 -7 11 C-8.20628008 8.66785852 -9.1654738 6.50357861 -10 4 C-6.58908673 0.88145073 -4.68377325 -0.53528837 0 0 Z " fill="#2560E8" transform="translate(274,110)"/>
<path d="M0 0 C1.98 0.99 1.98 0.99 4 2 C4 2.66 4 3.32 4 4 C4.56203125 4.2784375 5.1240625 4.556875 5.703125 4.84375 C7.24283189 5.61884055 8.77416405 6.41078092 10.296875 7.21875 C15.50115194 9.93690738 20.24487949 11.82766064 26 13 C26 13.33 26 13.66 26 14 C17.22200061 13.79455746 9.44242782 11.54346603 2.9375 5.375 C1 3 1 3 0 0 Z " fill="#797979" transform="translate(31,321)"/>
<path d="M0 0 C11.55 0 23.1 0 35 0 C33.68 1.65 32.36 3.3 31 5 C31 3.68 31 2.36 31 1 C15.16 1.495 15.16 1.495 -1 2 C-0.67 1.34 -0.34 0.68 0 0 Z " fill="#3365D5" transform="translate(262,85)"/>
<path d="M0 0 C0.33 1.32 0.66 2.64 1 4 C0.01 4.66 -0.98 5.32 -2 6 C-3.21418833 7.9466071 -3.21418833 7.9466071 -4.1875 10.125 C-4.53167969 10.84945312 -4.87585938 11.57390625 -5.23046875 12.3203125 C-5.48441406 12.87460938 -5.73835937 13.42890625 -6 14 C-7.65 14 -9.3 14 -11 14 C-7.46386286 9.21224044 -3.85516296 4.53548584 0 0 Z " fill="#386BDD" transform="translate(202,155)"/>
<path d="M0 0 C0.66 0.33 1.32 0.66 2 1 C0.5645497 2.77249524 -0.87343803 4.54293576 -2.3125 6.3125 C-3.51326172 7.79169922 -3.51326172 7.79169922 -4.73828125 9.30078125 C-6.42688356 11.31602166 -8.09630699 13.19488009 -10 15 C-9.22942875 8.25750155 -4.6763743 4.54647501 0 0 Z " fill="#E0F0FD" transform="translate(220,131)"/>
<path d="M0 0 C0.33 0 0.66 0 1 0 C0.81895467 7.73557339 -1.14832768 13.3199779 -5 20 C-5.66 20 -6.32 20 -7 20 C-5.89473175 17.19431906 -4.74439888 14.43554753 -3.5 11.6875 C-1.9151991 7.79153113 -0.93348569 4.0929757 0 0 Z " fill="#7C7C7C" transform="translate(337,300)"/>
<path d="M0 0 C7.24579719 -0.67090715 11.75838097 1.41874318 18 5 C17.34 5.66 16.68 6.32 16 7 C14.08259417 6.21012527 12.16610359 5.41802852 10.25 4.625 C9.18265625 4.18414063 8.1153125 3.74328125 7.015625 3.2890625 C4.62444074 2.26692415 2.30616817 1.19786405 0 0 Z " fill="#878787" transform="translate(303,19)"/>
<path d="M0 0 C0.66 0.99 1.32 1.98 2 3 C-1.16952847 6.26008643 -4.39937989 9.22237877 -8 12 C-8.66 11.67 -9.32 11.34 -10 11 C-6.7 7.37 -3.4 3.74 0 0 Z " fill="#DDEDFE" transform="translate(243,148)"/>
<path d="M0 0 C0.33 0.99 0.66 1.98 1 3 C0.195625 3.61875 -0.60875 4.2375 -1.4375 4.875 C-4.03874519 6.74164041 -4.03874519 6.74164041 -5 9 C-7.5625 9.625 -7.5625 9.625 -10 10 C-3.84965831 2.51708428 -3.84965831 2.51708428 0 0 Z " fill="#3566DA" transform="translate(273,152)"/>
<path d="M0 0 C2.77659377 1.38829688 3.08983346 3.38615507 4.203125 6.15234375 C5.04394633 8.21438609 5.04394633 8.21438609 6.6875 10.8125 C8 13 8 13 8 15 C7.34 15 6.68 15 6 15 C4.4921875 12.98828125 4.4921875 12.98828125 2.875 10.3125 C2.33617187 9.44238281 1.79734375 8.57226562 1.2421875 7.67578125 C-0.07159992 4.84576747 -0.25500388 3.0766773 0 0 Z " fill="#878787" transform="translate(23,306)"/>
<path d="M0 0 C0.93065133 2.60582371 1.14917407 3.64198224 0.0625 6.25 C-0.4634375 7.11625 -0.4634375 7.11625 -1 8 C-1.66 8 -2.32 8 -3 8 C-3.33 9.65 -3.66 11.3 -4 13 C-5.32 12.67 -6.64 12.34 -8 12 C-7.01 11.67 -6.02 11.34 -5 11 C-4.60955794 9.68225804 -4.29044914 8.34332728 -4 7 C-1.33333333 1.33333333 -1.33333333 1.33333333 0 0 Z " fill="#245FE9" transform="translate(230,122)"/>
<path d="M0 0 C0.33 1.32 0.66 2.64 1 4 C0.01 4 -0.98 4 -2 4 C-2.0825 4.763125 -2.165 5.52625 -2.25 6.3125 C-3.14615794 9.52373261 -4.21611025 10.29374499 -7 12 C-7.66 11.67 -8.32 11.34 -9 11 C-8.04956626 9.66102417 -7.08940853 8.32894573 -6.125 7 C-5.59132812 6.2575 -5.05765625 5.515 -4.5078125 4.75 C-4.01023438 4.1725 -3.51265625 3.595 -3 3 C-2.34 3 -1.68 3 -1 3 C-0.67 2.01 -0.34 1.02 0 0 Z " fill="#3866D9" transform="translate(260,87)"/>
<path d="M0 0 C0.66 0.66 1.32 1.32 2 2 C1.828125 4.49609375 1.828125 4.49609375 1.25 7.4375 C0.97929687 8.88962891 0.97929687 8.88962891 0.703125 10.37109375 C0 13 0 13 -2 16 C-2.2358396 10.22192976 -1.86783046 5.48675196 0 0 Z " fill="#9B9999" transform="translate(23,43)"/>
<path d="M0 0 C-0.33 1.32 -0.66 2.64 -1 4 C-2.65 3.67 -4.3 3.34 -6 3 C-6.99 4.485 -6.99 4.485 -8 6 C-8.66 5.67 -9.32 5.34 -10 5 C-7.70817629 1.38133099 -4.43955904 -2.21977952 0 0 Z " fill="#265EE2" transform="translate(213,149)"/>
<path d="M0 0 C0.33 0.66 0.66 1.32 1 2 C0.22265625 3.9453125 0.22265625 3.9453125 -0.9375 6.125 C-1.31777344 6.84945312 -1.69804687 7.57390625 -2.08984375 8.3203125 C-2.54037109 9.15175781 -2.54037109 9.15175781 -3 10 C-4.32 9.67 -5.64 9.34 -7 9 C-4.69 6.03 -2.38 3.06 0 0 Z " fill="#3B6ADB" transform="translate(245,104)"/>
<path d="M0 0 C0.66 0 1.32 0 2 0 C2.33 0.99 2.66 1.98 3 3 C2.38125 3.0825 1.7625 3.165 1.125 3.25 C-1.18437567 3.81258459 -1.18437567 3.81258459 -2.25 6.0625 C-2.4975 6.701875 -2.745 7.34125 -3 8 C-3.66 8 -4.32 8 -5 8 C-3.63055898 5.05043472 -2.12169591 2.47531189 0 0 Z " fill="#DCEEFE" transform="translate(251,138)"/>
<path d="M0 0 C0 3.23830467 -0.29194726 4.31591712 -2 7 C-4.625 9.25 -4.625 9.25 -7 11 C-7.66 10.67 -8.32 10.34 -9 10 C-6.03 6.7 -3.06 3.4 0 0 Z " fill="#406BD8" transform="translate(227,126)"/>
<path d="M0 0 C-2.64738916 1.4606285 -3.89448334 2 -7 2 C-7.33 3.32 -7.66 4.64 -8 6 C-8.66 6 -9.32 6 -10 6 C-10 5.34 -10 4.68 -10 4 C-10.66 3.67 -11.32 3.34 -12 3 C-10.3789897 2.30314502 -8.75303934 1.61777139 -7.125 0.9375 C-6.22007813 0.55464844 -5.31515625 0.17179688 -4.3828125 -0.22265625 C-2 -1 -2 -1 0 0 Z " fill="#212121" transform="translate(108,136)"/>
<path d="M0 0 C0 3.96 0 7.92 0 12 C-0.33 12 -0.66 12 -1 12 C-1 9.36 -1 6.72 -1 4 C-2.32 3.67 -3.64 3.34 -5 3 C-2.25 0 -2.25 0 0 0 Z " fill="#2D60D9" transform="translate(288,140)"/>
<path d="M0 0 C1.32 0.33 2.64 0.66 4 1 C4 2.32 4 3.64 4 5 C1.69 4.67 -0.62 4.34 -3 4 C-2.01 2.68 -1.02 1.36 0 0 Z " fill="#2D65E4" transform="translate(281,144)"/>
<path d="M0 0 C1.21816406 0.03480469 1.21816406 0.03480469 2.4609375 0.0703125 C3.68683594 0.09738281 3.68683594 0.09738281 4.9375 0.125 C5.87722656 0.15980469 5.87722656 0.15980469 6.8359375 0.1953125 C6.8359375 0.5253125 6.8359375 0.8553125 6.8359375 1.1953125 C4.1959375 1.1953125 1.5559375 1.1953125 -1.1640625 1.1953125 C-1.4528125 1.8140625 -1.7415625 2.4328125 -2.0390625 3.0703125 C-3.1640625 5.1953125 -3.1640625 5.1953125 -5.1640625 7.1953125 C-4.08619049 0.36878976 -4.08619049 0.36878976 0 0 Z " fill="#E0F4FE" transform="translate(263.1640625,82.8046875)"/>
<path d="M0 0 C1.32 0 2.64 0 4 0 C2.70700306 2.88437779 1.34058637 4.87219421 -1 7 C-1.04254356 5.00045254 -1.04080783 2.99958364 -1 1 C-0.67 0.67 -0.34 0.34 0 0 Z " fill="#3165E3" transform="translate(246,139)"/>
<path d="M0 0 C0.99 0 1.98 0 3 0 C2.39816251 2.02045442 1.72693904 4.02111039 1 6 C0.01 6.495 0.01 6.495 -1 7 C-1.625 5.1875 -1.625 5.1875 -2 3 C-1.34 2.01 -0.68 1.02 0 0 Z " fill="#2A5EE4" transform="translate(217,137)"/>
<path d="M0 0 C1.32 0 2.64 0 4 0 C3.1875 2.4375 3.1875 2.4375 2 5 C1.01 5.33 0.02 5.66 -1 6 C-0.67 4.02 -0.34 2.04 0 0 Z " fill="#3162DE" transform="translate(251,133)"/>
<path d="M0 0 C1.125 3.75 1.125 3.75 0 6 C-1.65 6 -3.3 6 -5 6 C-3.35 4.02 -1.7 2.04 0 0 Z " fill="#D8EBFE" transform="translate(280,105)"/>
<path d="M0 0 C3.2910841 3.60957611 4.54663921 6.12637153 5 11 C0 4.40909091 0 4.40909091 0 0 Z " fill="#888888" transform="translate(331,34)"/>
<path d="M0 0 C1.9375 0.3125 1.9375 0.3125 4 1 C4.33 1.99 4.66 2.98 5 4 C3.35 4 1.7 4 0 4 C0 2.68 0 1.36 0 0 Z " fill="#1E54FB" transform="translate(289,210)"/>
<path d="M0 0 C0.99 0 1.98 0 3 0 C1.63016497 3.16115776 1.0109362 3.9927092 -2 6 C-2.33 4.68 -2.66 3.36 -3 2 C-2.01 2 -1.02 2 0 2 C0 1.34 0 0.68 0 0 Z " fill="#3267DC" transform="translate(211,181)"/>
<path d="M0 0 C0.66 0.33 1.32 0.66 2 1 C0.75 3.9375 0.75 3.9375 -1 7 C-3.1875 7.875 -3.1875 7.875 -5 8 C-3.38731308 5.28775382 -1.75098126 2.62647188 0 0 Z " fill="#D7EBFE" transform="translate(218,176)"/>
<path d="M0 0 C1.32 0.33 2.64 0.66 4 1 C3.01 2.32 2.02 3.64 1 5 C-0.32 4.67 -1.64 4.34 -3 4 C-2.01 2.68 -1.02 1.36 0 0 Z " fill="#2E62E0" transform="translate(194,164)"/>
<path d="M0 0 C0.99 0.33 1.98 0.66 3 1 C1.37660195 2.70884005 -0.29319053 4.37446717 -2 6 C-2.66 6 -3.32 6 -4 6 C-4 5.01 -4 4.02 -4 3 C-2.68 2.67 -1.36 2.34 0 2 C0 1.34 0 0.68 0 0 Z " fill="#D7EAFE" transform="translate(274,148)"/>
<path d="M0 0 C2.475 0.495 2.475 0.495 5 1 C3.35 2.65 1.7 4.3 0 6 C0 4.02 0 2.04 0 0 Z " fill="#2E68DD" transform="translate(240,145)"/>
<path d="M0 0 C1.32 0.66 2.64 1.32 4 2 C2.35 3.32 0.7 4.64 -1 6 C-1.042721 4.33388095 -1.04063832 2.66617115 -1 1 C-0.67 0.67 -0.34 0.34 0 0 Z " fill="#2865DF" transform="translate(257,126)"/>
</svg>
